<svg xmlns="http://www.w3.org/2000/svg" width="191.62" height="35" viewBox="0 0 191.62 35"><rect class="svg__rect" x="0" y="0" width="145.56" height="35" fill="#C374EC"/><rect class="svg__rect" x="143.56" y="0" width="48.06" height="35" fill="#6F38D5"/><path class="svg__text" d="M16.67 22L14.22 22L14.22 13.47L16.74 13.47Q17.87 13.47 18.74 13.97Q19.62 14.48 20.10 15.40Q20.58 16.33 20.58 17.52L20.58 17.52L20.58 17.95Q20.58 19.16 20.10 20.08Q19.61 21.00 18.72 21.50Q17.83 22 16.67 22L16.67 22ZM15.70 14.66L15.70 20.82L16.67 20.82Q17.83 20.82 18.46 20.09Q19.08 19.36 19.09 17.99L19.09 17.99L19.09 17.52Q19.09 16.13 18.49 15.40Q17.89 14.66 16.74 14.66L16.74 14.66L15.70 14.66ZM30.62 22L25.05 22L25.05 13.47L30.58 13.47L30.58 14.66L26.53 14.66L26.53 17.02L30.03 17.02L30.03 18.19L26.53 18.19L26.53 20.82L30.62 20.82L30.62 22ZM36.30 22L34.82 22L34.82 13.47L38.08 13.47Q39.51 13.47 40.35 14.21Q41.19 14.96 41.19 16.18L41.19 16.18Q41.19 17.44 40.37 18.13Q39.55 18.83 38.06 18.83L38.06 18.83L36.30 18.83L36.30 22ZM36.30 14.66L36.30 17.64L38.08 17.64Q38.87 17.64 39.29 17.27Q39.71 16.90 39.71 16.19L39.71 16.19Q39.71 15.50 39.28 15.09Q38.86 14.68 38.12 14.66L38.12 14.66L36.30 14.66ZM51.06 22L45.48 22L45.48 13.47L51.01 13.47L51.01 14.66L46.96 14.66L46.96 17.02L50.46 17.02L50.46 18.19L46.96 18.19L46.96 20.82L51.06 20.82L51.06 22ZM56.73 22L55.25 22L55.25 13.47L56.73 13.47L60.55 19.54L60.55 13.47L62.02 13.47L62.02 22L60.54 22L56.73 15.95L56.73 22ZM69.21 22L66.76 22L66.76 13.47L69.28 13.47Q70.41 13.47 71.28 13.97Q72.16 14.48 72.64 15.40Q73.12 16.33 73.12 17.52L73.12 17.52L73.12 17.95Q73.12 19.16 72.64 20.08Q72.15 21.00 71.26 21.50Q70.37 22 69.21 22L69.21 22ZM68.24 14.66L68.24 20.82L69.21 20.82Q70.37 20.82 71.00 20.09Q71.62 19.36 71.63 17.99L71.63 17.99L71.63 17.52Q71.63 16.13 71.03 15.40Q70.43 14.66 69.28 14.66L69.28 14.66L68.24 14.66ZM83.16 22L77.59 22L77.59 13.47L83.12 13.47L83.12 14.66L79.07 14.66L79.07 17.02L82.57 17.02L82.57 18.19L79.07 18.19L79.07 20.82L83.16 20.82L83.16 22ZM88.84 22L87.36 22L87.36 13.47L88.84 13.47L92.66 19.54L92.66 13.47L94.13 13.47L94.13 22L92.64 22L88.84 15.95L88.84 22ZM98.60 18.19L98.60 18.19L98.60 17.39Q98.60 16.19 99.03 15.27Q99.45 14.35 100.25 13.85Q101.05 13.35 102.10 13.35L102.10 13.35Q103.51 13.35 104.38 14.12Q105.24 14.89 105.38 16.29L105.38 16.29L103.90 16.29Q103.80 15.37 103.36 14.96Q102.93 14.55 102.10 14.55L102.10 14.55Q101.14 14.55 100.62 15.26Q100.10 15.96 100.09 17.33L100.09 17.33L100.09 18.09Q100.09 19.47 100.58 20.20Q101.08 20.92 102.03 20.92L102.03 20.92Q102.90 20.92 103.34 20.53Q103.78 20.14 103.90 19.22L103.90 19.22L105.38 19.22Q105.25 20.59 104.37 21.35Q103.49 22.12 102.03 22.12L102.03 22.12Q101.01 22.12 100.24 21.63Q99.46 21.15 99.04 20.26Q98.62 19.37 98.60 18.19ZM111.25 22L109.78 22L109.78 13.47L111.25 13.47L111.25 22ZM121.64 22L116.06 22L116.06 13.47L121.60 13.47L121.60 14.66L117.55 14.66L117.55 17.02L121.05 17.02L121.05 18.19L117.55 18.19L117.55 20.82L121.64 20.82L121.64 22ZM125.40 19.42L125.40 19.42L126.89 19.42Q126.89 20.15 127.37 20.55Q127.85 20.95 128.74 20.95L128.74 20.95Q129.52 20.95 129.91 20.63Q130.30 20.32 130.30 19.80L130.30 19.80Q130.30 19.24 129.90 18.94Q129.51 18.63 128.47 18.32Q127.44 18.01 126.83 17.63L126.83 17.63Q125.67 16.90 125.67 15.72L125.67 15.72Q125.67 14.69 126.51 14.02Q127.35 13.35 128.69 13.35L128.69 13.35Q129.58 13.35 130.28 13.68Q130.98 14.01 131.38 14.61Q131.77 15.22 131.77 15.96L131.77 15.96L130.30 15.96Q130.30 15.29 129.88 14.91Q129.46 14.54 128.68 14.54L128.68 14.54Q127.95 14.54 127.55 14.85Q127.15 15.16 127.15 15.71L127.15 15.71Q127.15 16.18 127.58 16.50Q128.02 16.81 129.01 17.10Q130.01 17.40 130.61 17.78Q131.22 18.16 131.50 18.65Q131.78 19.13 131.78 19.79L131.78 19.79Q131.78 20.86 130.96 21.49Q130.14 22.12 128.74 22.12L128.74 22.12Q127.82 22.12 127.04 21.77Q126.27 21.43 125.84 20.83Q125.40 20.22 125.40 19.42Z" fill="#FFFFFF"/><path class="svg__text" d="M160.08 22L157.75 22L157.75 13.60L159.70 13.60L163.41 18.07L163.41 13.60L165.74 13.60L165.74 22L163.79 22L160.08 17.52L160.08 22ZM170.47 17.80L170.47 17.80Q170.47 16.55 171.08 15.55Q171.68 14.56 172.74 14.00Q173.81 13.43 175.14 13.43L175.14 13.43Q176.47 13.43 177.53 14.00Q178.60 14.56 179.20 15.55Q179.81 16.55 179.81 17.80L179.81 17.80Q179.81 19.05 179.20 20.04Q178.60 21.04 177.53 21.60Q176.47 22.17 175.14 22.17L175.14 22.17Q173.81 22.17 172.74 21.60Q171.68 21.04 171.08 20.04Q170.47 19.05 170.47 17.80ZM172.87 17.80L172.87 17.80Q172.87 18.51 173.17 19.05Q173.47 19.60 173.99 19.90Q174.51 20.20 175.14 20.20L175.14 20.20Q175.78 20.20 176.29 19.90Q176.81 19.60 177.11 19.05Q177.41 18.51 177.41 17.80L177.41 17.80Q177.41 17.09 177.11 16.54Q176.81 16 176.29 15.70Q175.78 15.40 175.14 15.40L175.14 15.40Q174.50 15.40 173.99 15.70Q173.47 16 173.17 16.54Q172.87 17.09 172.87 17.80Z" fill="#FFFFFF" x="156.56"/></svg>